#ifndef MUSIC_H
#define MUSIC_H

#include <ArduboyTones.h>

const uint16_t frosty[] PROGMEM = {
  
  NOTE_G4,480,NOTE_REST,20, NOTE_E4,355,NOTE_REST,20, NOTE_F4,105,NOTE_REST,20,

  NOTE_G4,230,NOTE_REST,20, NOTE_C5,480,NOTE_REST,20, NOTE_B4,105,NOTE_REST,20, NOTE_C5,105,NOTE_REST,20,
  
  NOTE_D5,230,NOTE_REST,20, NOTE_C5,230,NOTE_REST,20, NOTE_B4,230,NOTE_REST,20, NOTE_A4,230,NOTE_REST,20,

  NOTE_G4,730,NOTE_REST,20, NOTE_B4,105,NOTE_REST,20, NOTE_C5,105,NOTE_REST,20,

  NOTE_D5,230,NOTE_REST,20, NOTE_C5,230,NOTE_REST,20, NOTE_B4,230,NOTE_REST,20, NOTE_A4,105,NOTE_REST,20, NOTE_A4,105,NOTE_REST,20,

  NOTE_G4,230,NOTE_REST,20, NOTE_C5,230,NOTE_REST,20, NOTE_E4,230,NOTE_REST,20, NOTE_G4,105,NOTE_REST,20, NOTE_A4,105,NOTE_REST,20,

  NOTE_G4,230,NOTE_REST,20, NOTE_F4,230,NOTE_REST,20, NOTE_E4,230,NOTE_REST,20, NOTE_F4,230,NOTE_REST,20,

  NOTE_G4,730,NOTE_REST,270,
  

  NOTE_G4,480,NOTE_REST,20, NOTE_E4,355,NOTE_REST,20, NOTE_F4,105,NOTE_REST,20,

  NOTE_G4,230,NOTE_REST,20, NOTE_C5,480,NOTE_REST,20, NOTE_B4,105,NOTE_REST,20, NOTE_C5,105,NOTE_REST,20,
  
  NOTE_D5,230,NOTE_REST,20, NOTE_C5,230,NOTE_REST,20, NOTE_B4,230,NOTE_REST,20, NOTE_A4,230,NOTE_REST,20,

  NOTE_G4,730,NOTE_REST,20, NOTE_B4,105,NOTE_REST,20, NOTE_C5,105,NOTE_REST,20,

  NOTE_D5,230,NOTE_REST,20, NOTE_C5,230,NOTE_REST,20, NOTE_B4,230,NOTE_REST,20, NOTE_A4,105,NOTE_REST,20, NOTE_A4,105,NOTE_REST,20,

  NOTE_G4,230,NOTE_REST,20, NOTE_C5,230,NOTE_REST,20, NOTE_E4,230,NOTE_REST,20, NOTE_G4,105,NOTE_REST,20, NOTE_A4,105,NOTE_REST,20,

  NOTE_G4,230,NOTE_REST,20, NOTE_F4,230,NOTE_REST,20, NOTE_E4,230,NOTE_REST,20, NOTE_D4,230,NOTE_REST,20,

  NOTE_C4,730,NOTE_REST,20, NOTE_C4,230,NOTE_REST,20,
  

  NOTE_A4,230,NOTE_REST,20, NOTE_A4,230,NOTE_REST,20, NOTE_C5,230,NOTE_REST,20, NOTE_C5,230,NOTE_REST,20, 

  NOTE_B4,230,NOTE_REST,20, NOTE_A4,230,NOTE_REST,20, NOTE_G4,230,NOTE_REST,20, NOTE_E4,230,NOTE_REST,20, 

  NOTE_F4,230,NOTE_REST,20, NOTE_A4,230,NOTE_REST,20, NOTE_G4,230,NOTE_REST,20, NOTE_F4,230,NOTE_REST,20, 

  NOTE_E4,730,NOTE_REST,20, NOTE_E4,230,NOTE_REST,20,

  NOTE_D4,230,NOTE_REST,20, NOTE_D4,230,NOTE_REST,20, NOTE_G4,230,NOTE_REST,20, NOTE_G4,230,NOTE_REST,20, 

  NOTE_B4,230,NOTE_REST,20, NOTE_B4,230,NOTE_REST,20, NOTE_D5,480,NOTE_REST,20,

  NOTE_D5,230,NOTE_REST,20, NOTE_C5,105,NOTE_REST,20, NOTE_B4,355,NOTE_REST,20, NOTE_A4,230,NOTE_REST,20,

  NOTE_G4,230,NOTE_REST,20, NOTE_F4,105,NOTE_REST,20, NOTE_D4,105,NOTE_REST,20, NOTE_D4,480,NOTE_REST,20,
  

  NOTE_G4,480,NOTE_REST,20, NOTE_E4,355,NOTE_REST,20, NOTE_F4,105,NOTE_REST,20,

  NOTE_G4,230,NOTE_REST,20, NOTE_C5,480,NOTE_REST,20, NOTE_B4,105,NOTE_REST,20, NOTE_C5,105,NOTE_REST,20,
  
  NOTE_D5,230,NOTE_REST,20, NOTE_C5,230,NOTE_REST,20, NOTE_B4,230,NOTE_REST,20, NOTE_A4,230,NOTE_REST,20,

  NOTE_G4,730,NOTE_REST,20, NOTE_B4,105,NOTE_REST,20, NOTE_C5,105,NOTE_REST,20,

  NOTE_D5,230,NOTE_REST,20, NOTE_C5,230,NOTE_REST,20, NOTE_B4,230,NOTE_REST,20, NOTE_A4,105,NOTE_REST,20, NOTE_A4,105,NOTE_REST,20,

  NOTE_G4,230,NOTE_REST,20, NOTE_C5,230,NOTE_REST,20, NOTE_E4,230,NOTE_REST,20, NOTE_G4,105,NOTE_REST,20, NOTE_A4,105,NOTE_REST,20,

  NOTE_G4,230,NOTE_REST,20, NOTE_F4,230,NOTE_REST,20, NOTE_E4,230,NOTE_REST,20, NOTE_D4,230,NOTE_REST,20,

  NOTE_C4,730,NOTE_REST,270,


  TONES_END
};


#endif; //MUSIC_H